<?xml version="1.0" encoding="UTF-8" standalone="no"?>
<!DOCTYPE svg PUBLIC "-//W3C//DTD SVG 1.1//EN" "http://www.w3.org/Graphics/SVG/1.1/DTD/svg11.dtd">
<svg version="1.1" xmlns="http://www.w3.org/2000/svg" xmlns:xlink="http://www.w3.org/1999/xlink" preserveAspectRatio="xMidYMid meet" viewBox="0 0 640 640" width="640" height="640"><defs><path d="M584.36 384.65C631.62 302.03 648.77 237.59 635.82 191.31C616.39 121.89 586.63 88.34 533.63 78.47C480.63 68.59 447.67 105.16 419.32 168.3C400.42 210.39 402.22 278.13 424.73 371.51C443.53 481.86 455.28 550.83 459.98 578.42C460.04 578.75 460.48 578.84 460.67 578.56C477.16 552.7 518.39 488.06 584.36 384.65Z" id="fsYySYBhV"></path><path d="M87.54 453.65C106.79 478.65 161.68 500.64 252.21 519.64L438.24 563.13L316.7 453.65C236.43 396.91 180.67 364.42 149.43 356.17C102.56 343.8 88.09 330.54 69.25 356.17C50.4 381.8 58.67 416.16 87.54 453.65Z" id="c8wbnixUpk"></path><path d="M31.45 445.94C50.7 470.94 105.59 492.93 196.12 511.93L382.15 555.42L260.61 445.94C180.34 389.2 124.58 356.71 93.34 348.46C46.47 336.09 32 322.83 13.16 348.46C-5.69 374.09 2.58 408.45 31.45 445.94Z" id="c1C0sufn2w"></path><path d="M525.44 369.05C572.7 286.44 589.86 221.99 576.91 175.71C557.48 106.29 527.72 72.75 474.72 62.87C421.72 52.99 388.75 89.57 360.4 152.7C341.5 194.79 343.31 262.53 365.82 355.91C384.62 466.26 396.37 535.23 401.07 562.82C401.13 563.16 401.57 563.25 401.75 562.96C418.25 537.1 459.48 472.47 525.44 369.05Z" id="a1ndK97tTK"></path></defs><g><g><g><use xlink:href="#fsYySYBhV" opacity="1" fill="#f07e1c" fill-opacity="1"></use><g><use xlink:href="#fsYySYBhV" opacity="1" fill-opacity="0" stroke="#f07e1c" stroke-width="1" stroke-opacity="1"></use></g></g><g><use xlink:href="#c8wbnixUpk" opacity="1" fill="#f07e1c" fill-opacity="1"></use><g><use xlink:href="#c8wbnixUpk" opacity="1" fill-opacity="0" stroke="#f07e1c" stroke-width="1" stroke-opacity="1"></use></g></g><g><use xlink:href="#c1C0sufn2w" opacity="1" fill="#1c6a38" fill-opacity="1"></use><g><use xlink:href="#c1C0sufn2w" opacity="1" fill-opacity="0" stroke="#1c6a38" stroke-width="1" stroke-opacity="1"></use></g></g><g><use xlink:href="#a1ndK97tTK" opacity="1" fill="#1c6a38" fill-opacity="1"></use><g><use xlink:href="#a1ndK97tTK" opacity="1" fill-opacity="0" stroke="#1c6a38" stroke-width="1" stroke-opacity="1"></use></g></g></g></g></svg>